<svg xmlns="http://www.w3.org/2000/svg" version="1.1" xmlns:xlink="http://www.w3.org/1999/xlink" xmlns:svgjs="http://svgjs.dev/svgjs" width="1440" height="600" preserveAspectRatio="none" viewBox="0 0 1440 600"><g mask="url(&quot;#SvgjsMask1030&quot;)" fill="none"><rect width="1440" height="600" x="0" y="0" fill="rgba(227, 230, 234, 1)"></rect><circle r="8.215" cx="1361.935" cy="239.695" filter="url(#SvgjsFilter1031)" fill="rgba(162, 163, 165, 0.58)"></circle><circle r="6.515" cx="22.805" cy="63.265" filter="url(#SvgjsFilter1031)" fill="rgba(162, 163, 165, 0.58)"></circle><circle r="5.95" cx="483.74" cy="142.01999999999998" filter="url(#SvgjsFilter1031)" fill="rgba(162, 163, 165, 0.58)"></circle><circle r="7.75" cx="656.49" cy="340.35" filter="url(#SvgjsFilter1031)" fill="rgba(162, 163, 165, 0.58)"></circle><circle r="5.725" cx="84.79499999999999" cy="525.075" filter="url(#SvgjsFilter1031)" fill="rgba(162, 163, 165, 0.58)"></circle><circle r="5.63" cx="1036.65" cy="258.31" filter="url(#SvgjsFilter1031)" fill="rgba(162, 163, 165, 0.58)"></circle><circle r="9.125" cx="1322.775" cy="9.325" filter="url(#SvgjsFilter1031)" fill="rgba(162, 163, 165, 0.58)"></circle><circle r="8.425" cx="1303.2849999999999" cy="543.9849999999999" filter="url(#SvgjsFilter1031)" fill="rgba(162, 163, 165, 0.58)"></circle><circle r="6.225" cx="1158.8249999999998" cy="193.035" filter="url(#SvgjsFilter1031)" fill="rgba(162, 163, 165, 0.58)"></circle><circle r="9.035" cx="936.0949999999999" cy="354.52500000000003" filter="url(#SvgjsFilter1031)" fill="rgba(162, 163, 165, 0.58)"></circle><circle r="8.535" cx="1217.335" cy="117.675" filter="url(#SvgjsFilter1031)" fill="rgba(162, 163, 165, 0.58)"></circle><circle r="9.705" cx="85.235" cy="298.885" filter="url(#SvgjsFilter1031)" fill="rgba(162, 163, 165, 0.58)"></circle><circle r="8.4" cx="1108.0800000000002" cy="127.88000000000001" filter="url(#SvgjsFilter1031)" fill="rgba(162, 163, 165, 0.58)"></circle><circle r="8.43" cx="1381.29" cy="424.57" filter="url(#SvgjsFilter1031)" fill="rgba(162, 163, 165, 0.58)"></circle><circle r="8.03" cx="34.36" cy="256.84999999999997" filter="url(#SvgjsFilter1031)" fill="rgba(162, 163, 165, 0.58)"></circle><circle r="9.305" cx="953.1949999999999" cy="515.525" filter="url(#SvgjsFilter1031)" fill="rgba(162, 163, 165, 0.58)"></circle><circle r="7.215" cx="494.955" cy="264.03499999999997" filter="url(#SvgjsFilter1031)" fill="rgba(162, 163, 165, 0.58)"></circle><circle r="8.38" cx="1004.08" cy="53.940000000000005" filter="url(#SvgjsFilter1031)" fill="rgba(162, 163, 165, 0.58)"></circle><circle r="9.53" cx="134.65" cy="297.14" filter="url(#SvgjsFilter1031)" fill="rgba(162, 163, 165, 0.58)"></circle><circle r="9.385" cx="1212.815" cy="236.815" filter="url(#SvgjsFilter1031)" fill="rgba(162, 163, 165, 0.58)"></circle><path d="M1193.6 421.4L1221.1 464.5 1216.7 482.6 1207.5 468.1C1206.9 466.2 1204.9 466.2 1203.1 466.8 1202 467.8 1201.4 470 1202.4 471L1214.7 491.3 1211 509.2 1197.6 496.6 1196.9 472.7C1196.9 472.7 1196.7 472.1 1196.7 472.1 1196.3 470.9 1194.7 470.1 1193.3 469.8 1191.5 470.4 1190.4 471.4 1190.4 473.4L1191.1 490.6 1177.8 478 1175.3 427.2C1175.3 427.2 1175.7 426.4 1175.7 426.4 1175.3 425.1 1173.7 424.3 1172.3 424.1 1170.3 424 1168.8 425.8 1169.4 427.7L1171.2 472 1154.5 457.1 1153.6 437.3C1153.6 437.3 1153.6 437.3 1153.4 436.7 1153.1 435.4 1152.1 434.4 1150.7 434.2 1148.8 434.8 1147.2 435.9 1147.1 438L1147.9 451.1 1135.8 440.2C1134.6 438.5 1132.7 439.1 1131.7 440.1 1130.1 441.3 1130 443.3 1131.8 444.8L1143.4 455.9 1130.6 455.9C1128.8 456.4 1127.1 457.6 1127.7 459.5 1127.7 461.5 1128.7 462.5 1130.7 462.6L1150.5 461.7 1166.6 476.8 1121.7 478.8C1120.3 478.5 1118.8 480.3 1118.8 482.4 1119.1 483.6 1120.3 485.2 1122.4 485.3L1173.2 482.8 1186.5 495.4 1169.3 496.1C1167.3 496 1166.4 497.6 1166.4 499.7 1166.2 501.1 1168 502.5 1169.4 502.8L1193.1 501.4 1207 513.8 1189.3 519.3 1168.5 508.4C1166.9 507.6 1165 508.1 1164.2 509.7 1163.2 510.7 1163.9 513.2 1165.5 514L1180.8 522 1163 527.5 1118 503.4C1116.4 502.6 1114.5 503.1 1113.7 504.7 1112.8 506.3 1113.4 508.2 1115 509L1154.5 530.2 1133.7 536.7 1116.1 527.5C1114.5 526.6 1112.6 527.2 1111.8 528.8 1111 530.4 1111.5 532.2 1113.1 533.1L1124.6 539.6 1109.3 544.3C1107.4 544.9 1106.6 546.5 1107.2 548.3 1107.8 550.2 1109.4 551 1111.2 550.4L1126.5 545.7 1120.6 556.9C1119.7 558.5 1120.3 560.3 1121.9 561.2S1125.4 561.4 1126.2 559.8L1135 543 1156.4 536.3 1135.8 575.6C1135 577.2 1135.5 579 1137.1 579.9 1138.7 580.7 1140.6 580.1 1141.4 578.5L1164.9 533.6 1182.7 528.1 1174.7 543.3C1173.8 545 1174.4 546.8 1176 547.6 1177.6 548.5 1179.5 547.9 1180.3 546.3L1191.2 525.4 1208.3 520.1 1204.3 537.4 1184.3 550.4C1183.2 551.4 1182.6 553.6 1183.6 554.7 1184.8 556.3 1186.2 556.5 1188 556L1202.6 546.7 1198.6 564 1155.5 591.6C1153.9 592.7 1153.7 594.2 1154.2 596 1155.4 597.6 1157.5 597.7 1158.7 597.3L1196.8 573.3 1191.5 595.1 1175.3 605.5C1173.5 606.1 1173.4 608.1 1174 609.9 1175 611 1177.2 611.6 1178.9 610.4L1189.5 603.8 1186.4 619.5C1185.5 621.1 1186.7 622.7 1188.9 623.4 1190.4 623.6 1192 622.4 1192.2 621L1196 605.1 1202.8 616.4C1204 618 1206 618 1207.1 617 1208.9 616.5 1209.1 615.1 1208.8 613.8 1208.6 613.2 1208.6 613.2 1208.4 612.6L1198 596.4 1203.2 574.7 1227 612.2C1227.6 614 1229.6 614 1231.4 613.5 1232.5 612.5 1232.7 611.1 1232.3 609.8 1232.1 609.2 1232.1 609.2 1232.1 609.2L1205 565.4 1209 548.1 1218.2 562.6C1219.4 564.2 1220.8 564.5 1222.7 563.9 1223.7 562.9 1224.5 561.3 1224.2 560.1 1224 559.5 1224 559.5 1223.8 558.9L1210.8 538.8 1214.8 521.4 1227.9 533.4 1229.3 557.1C1229.2 559.2 1231 560.6 1232.4 560.8 1234.3 560.3 1235.9 559.1 1235.3 557.3L1234.7 540 1248.4 551.8 1250.5 603.5C1250.2 604.9 1252 606.4 1253.4 606.6 1255.3 606 1256.9 604.8 1256.9 602.8L1255.2 558.4 1271.3 573.5 1271.9 592.8C1271.9 594.8 1273.7 596.3 1275.5 595.7 1276.9 595.9 1278.6 594.7 1278.6 592.7L1277.8 579.5 1290 590.5C1291 591.5 1293 591.6 1294.6 590.4 1295.1 589.6 1295.3 588.2 1294.9 586.9 1294.9 586.9 1294.7 586.3 1294.5 585.7L1282.4 574.8 1295.6 574C1297 574.2 1298.4 572.4 1298.6 571 1298.5 570.4 1298.5 570.4 1298.5 570.4 1297.9 568.6 1296.3 567.7 1295.1 568.1L1275.8 568.8 1259.1 553.9 1304.1 551.9C1305.9 551.3 1306.9 550.3 1307 548.3 1307 548.3 1306.8 547.7 1306.8 547.7 1306.4 546.5 1305.4 545.4 1303.4 545.4L1252.3 547.3 1239.2 535.3 1256.4 534.6C1258.3 534 1259.9 532.8 1259.3 531 1259.9 530.8 1259.7 530.2 1259.7 530.2 1259.4 529 1257.8 528.1 1256.4 527.9L1232.6 529.3 1219.3 516.7 1236.4 511.3 1257.3 522.3C1258.9 523.1 1261.3 522.3 1262.2 520.7 1262.4 519.3 1261.8 517.5 1260.8 516.5L1245 508.7 1262.7 503.1 1307.6 526.7C1309.2 527.5 1311 526.9 1311.9 525.3 1312.7 523.7 1312.1 521.9 1310.5 521L1271.2 500.5 1292.6 493.8 1309.5 502.6C1311.1 503.4 1312.9 502.9 1313.7 501.3S1314 497.8 1312.4 497L1301.2 491.1 1316.5 486.3C1318.3 485.8 1319.1 484.2 1318.6 482.3 1318 480.5 1316.4 479.7 1314.5 480.2L1299.3 485 1305 473.2C1305.4 472.4 1305.8 471.6 1305.6 471 1305.4 470.3 1304.4 469.3 1303.6 468.9 1302 468.1 1300.2 468.6 1299.4 470.2L1290.7 487.7 1269.3 494.4 1289.7 454.5C1290.2 453.7 1290.6 452.9 1290.4 452.2 1290.2 451.6 1289.2 450.6 1288.4 450.2 1286.8 449.3 1285 449.9 1284.1 451.5L1260.8 497 1243.1 502.6 1251.7 487.1C1252.1 486.3 1251.7 485.1 1251.5 484.5 1251.3 483.9 1251.1 483.3 1250.3 482.9 1248.7 482 1246.3 482.8 1246.1 484.2L1234.5 505.2 1217.4 510.6 1221.2 492.6 1241.5 480.3C1242.5 479.3 1243.3 477.7 1243 476.4 1242.8 475.8 1242.8 475.8 1242.2 476 1241.6 474.2 1239.4 473.5 1237.7 474.7L1223.2 484 1227 466 1270.8 438.9C1271.8 437.9 1272.1 436.5 1271.7 435.3 1271.5 434.7 1271.5 434.7 1271.5 434.7 1270.3 433 1268.7 432.2 1267.1 433.4L1229 457.3 1234.2 435.6 1250.4 425.2C1252.1 424 1252.3 422.6 1251.9 421.3 1251.9 421.3 1251.7 420.7 1251.7 420.7 1250.5 419.1 1248.5 419.1 1247.3 419.4L1236.2 426.9 1240 411C1239.8 410.4 1239.6 409.8 1239.4 409.2 1239.2 408.6 1238.2 407.5 1237.4 407.1 1235.4 407.1 1233.6 407.6 1233.5 409.7L1229.8 425.6 1222.9 414.3C1221.7 412.7 1219.7 412.6 1218.5 413 1216.8 414.2 1216.8 416.2 1217.4 418.1L1227.8 434.2 1223.1 455.8 1199.3 418.3C1198.2 416.7 1195.9 416 1194.9 417 1193.3 418.2 1192.4 419.8 1193.6 421.4Z" fill="rgba(162, 163, 165, 0.58)"></path><path d="M267.3 100.3L291.6 147.5 276.9 192.5 245.3 157.3 248.5 104.3C248.5 104.3 248.4 103.6 248.4 103.6 248.1 102.4 246.6 101.4 245.2 101 243.2 100.8 241.6 102.5 242 104.3L239.3 150.7 223.9 133.6 224.9 113.2C224.9 113.2 224.7 112.5 224.7 112.5 224.5 111.3 222.9 110.3 221.6 109.9 219.6 109.7 217.9 111.4 218.3 113.2L217.3 127.2 206.2 114.5C205.3 113.4 202.6 113.3 201.5 114.2 199.8 115.2 200.3 117.7 201.2 118.8L212.4 131.5 198.4 130.5C196.4 130.3 194.8 131.9 195.2 133.8 195 135.8 196.6 137.4 198.5 137L219 138 233.7 155.1 187.4 152.5C185.3 152.2 183.7 153.9 184.1 155.8 183.9 157.8 185.5 159.4 187.4 159L240.4 162.2 272 197.4 225.1 207.3 180.3 178.1C178.8 177.2 176.9 177.6 176 179.1 175 180.6 175.4 182.5 176.9 183.5L216.3 209.2 193.8 213.9 177.1 203C175.6 202 173.7 202.4 172.7 204 171.7 205.5 172.1 207.4 173.6 208.3L185 215.8 167.5 219.5C165.5 219.2 164.6 221.4 165 223.2 165.4 225.1 166.9 226.1 168.8 225.7L185.1 222.3 177.7 233.7C176.7 235.2 177.1 237.1 178.6 238S182 238.6 183 237.1L193.8 220.4 216.4 215.7 190.7 255.1C189.7 256.6 190.1 258.5 191.6 259.5 193.1 260.5 195 260.1 196 258.6L225.1 213.8 271.5 204.1 256.8 249 210.7 272.5C208.9 273.5 208.7 275.5 209.1 277.4 210.1 279.1 212.1 279.4 214 279L255.3 257.8 248.2 279.6 229.8 288.7C228.1 289.7 227.8 291.8 228.2 293.6 229.2 295.4 231.3 295.6 232.5 295.4L244.9 288.8 239.8 304.9C239.4 306.3 239.9 308.8 241.9 309.1 244 309.3 245.8 308.9 246.1 306.9L251.2 290.8 257.7 303.1C258.7 304.9 260.7 305.1 262 304.8 263.1 303.9 264.1 302.4 263.8 301.2 263.8 301.2 263.7 300.6 263.7 300.6L254.6 282.2 261.8 260.4 282.9 301.7C283.9 303.5 285.9 303.7 287.2 303.4 288.3 302.6 289.3 301 289 299.8 289 299.8 288.9 299.2 288.9 299.2L264.6 252 279.3 207 310.9 242.2 307.7 295.2C307.5 297.2 309.1 298.8 311 298.4 313 298.7 314.6 297 314.2 295.1L316.9 248.8 332.2 265.8 331.3 286.3C331.1 288.3 332.7 289.9 334.6 289.5 336.6 289.8 338.3 288.1 337.9 286.2L338.8 272.3 350 285C350.9 286.1 353.5 286.2 354.7 285.3 355.8 284.4 356.1 283 355.9 281.8 355.8 281.2 355.6 280.5 354.9 280L343.7 267.3 357.6 268.3C359.6 268.6 361.3 266.9 360.9 265 360.9 265 360.7 264.4 360.7 264.4 360.5 263.2 358.9 262.2 357.6 261.8L337.1 260.9 321.7 243.8 368.1 246.5C370.1 246.7 371.7 245.1 371.3 243.2 371.3 243.2 371.2 242.6 371.2 242.6 370.9 241.3 369.4 240.3 368 240L315 236.8 283.4 201.6 329.7 191.8 374.5 221C376 221.9 377.9 221.6 378.8 220 379.8 218.5 379.4 216.6 377.9 215.7L339.1 189.8 361.7 185.1 378.3 195.9C379.9 196.9 381.7 196.5 382.7 195S383.3 191.6 381.8 190.6L370.4 183.2 386.7 179.8C388.6 179.4 389.6 177.9 389.2 176 388.8 174.1 387.3 173.1 385.4 173.5L369.1 177 376.5 165.6C377 164.8 377.5 164.1 377.3 162.8S376.2 161.1 375.5 160.6C374 159.6 372.1 160 371.1 161.5L360.2 178.2 337.7 182.9 363.4 143.5C363.9 142.7 364.4 142 364.1 140.7 364 140.1 363.1 139 362.3 138.5 360.8 137.5 358.9 137.9 357.9 139.4L328.8 184.2 282.4 193.9 297.2 149 344.3 124.6C345.5 123.7 346.5 122.2 346.2 121 346.2 121 346.1 120.3 346.1 120.3 345 118.6 343 118.4 341.8 118.6L300.4 139.8 307.6 118 326 108.9C327.1 108 328.1 106.5 327.8 105.2 327.8 105.2 327.7 104.6 327.7 104.6 326.7 102.8 324.7 102.6 323.4 102.9L311.1 109.4 316.2 93.3C316 92.7 316.5 91.9 316.4 91.3 316.1 90 315.2 88.9 313.9 88.5 311.8 88.3 310 88.7 309.7 90.7L304.6 106.8 298.1 94.5C297.1 92.7 295.1 92.5 293.8 92.8 292.1 93.8 291.8 95.8 292.1 97L301.2 115.4 294 137.2 272.9 95.9C271.9 94.1 269.8 93.9 268.6 94.1 267.1 96.4 266.3 98.6 267.3 100.3Z" fill="rgba(162, 163, 165, 0.58)"></path><path d="M444.6 572L477.1 551.7 490.7 555.1 479.7 561.9C478.3 562.4 478.3 563.9 478.7 565.3 479.4 566 481.1 566.5 481.9 565.8L497.2 556.7 510.6 559.6 501 569.5 483.1 569.9C483.1 569.9 482.6 570.1 482.6 570.1 481.7 570.4 481.1 571.6 480.9 572.6 481.3 574 482.1 574.8 483.6 574.8L496.5 574.4 486.9 584.3 448.8 585.8C448.8 585.8 448.2 585.5 448.2 585.5 447.3 585.8 446.6 587 446.4 588 446.4 589.5 447.7 590.6 449.1 590.2L482.4 589.2 471.1 601.6 456.2 602.1C456.2 602.1 456.2 602.1 455.8 602.3 454.8 602.5 454.1 603.3 453.9 604.3 454.3 605.7 455.2 607 456.7 607L466.6 606.5 458.3 615.5C457 616.4 457.4 617.8 458.2 618.6 459.1 619.8 460.6 619.9 461.7 618.5L470.1 610 470 619.5C470.4 620.9 471.3 622.1 472.7 621.7 474.2 621.8 475 621 475 619.5L474.5 604.6 485.9 592.6 487.1 626.4C486.9 627.5 488.3 628.6 489.8 628.6 490.7 628.3 491.9 627.4 492 625.9L490.5 587.8 500 577.9 500.4 590.8C500.4 592.3 501.6 592.9 503.1 593 504.2 593.2 505.3 591.8 505.4 590.8L504.6 573 514 562.6 518 576 509.7 591.5C509 592.7 509.4 594.1 510.6 594.7 511.4 595.5 513.2 595 513.9 593.8L520 582.4 524 595.7 505.5 629.4C504.9 630.5 505.3 631.9 506.5 632.6 507.7 633.2 509.1 632.8 509.7 631.6L525.9 602.1 530.6 617.8 523.6 630.9C522.9 632.1 523.3 633.5 524.5 634.2 525.7 634.8 527.1 634.4 527.8 633.2L532.7 624.7 536.2 636.2C536.6 637.5 537.8 638.2 539.2 637.8 540.5 637.3 541.2 636.1 540.8 634.8L537.3 623.3 545.7 627.8C546.9 628.4 548.3 628 548.9 626.8S549.1 624.2 547.9 623.6L535.4 616.8 530.5 600.8 559.8 616.5C561 617.1 562.4 616.7 563 615.5 563.7 614.3 563.3 612.9 562.1 612.3L528.6 594.3 524.6 581 535.9 587.1C537.1 587.7 538.5 587.3 539.1 586.1 539.8 584.9 539.4 583.6 538.2 582.9L522.6 574.6 518.7 561.7 531.7 564.8 541.3 580C542 580.7 543.7 581.2 544.5 580.5 545.7 579.6 545.9 578.6 545.5 577.2L538.6 566.2 551.6 569.3 571.9 601.8C572.8 603 573.9 603.2 575.3 602.8 576.5 601.9 576.5 600.4 576.3 599.5L558.6 570.7 574.8 574.9 582.5 587.1C583 588.4 584.5 588.5 585.8 588.1 586.6 587.3 587.1 585.7 586.3 584.4L581.3 576.4 593.1 578.9C594.3 579.5 595.5 578.6 596 577 596.2 575.9 595.3 574.7 594.3 574.5L582.4 571.6 590.9 566.5C592.1 565.6 592.2 564.1 591.4 563.3 591 562 589.9 561.8 589 562 588.6 562.2 588.6 562.2 588.1 562.3L575.9 570 559.6 565.9 587.9 548.4C589.3 547.9 589.3 546.4 588.9 545 588.2 544.3 587.1 544.1 586.2 544.4 585.7 544.5 585.7 544.5 585.7 544.5L552.7 564.5 539.7 561.4 550.7 554.6C551.9 553.7 552.1 552.6 551.7 551.3 550.9 550.5 549.7 549.8 548.8 550.1 548.4 550.3 548.4 550.3 547.9 550.4L532.7 560 519.8 556.9 528.9 547.1 546.7 546.3C548.2 546.3 549.3 545 549.5 543.9 549 542.5 548.2 541.3 546.8 541.7L533.9 542.1 542.8 531.9 581.6 530.7C582.6 530.9 583.7 529.6 583.9 528.5 583.5 527.1 582.6 525.9 581.1 525.8L547.8 526.9 559.2 514.9 573.7 514.5C575.2 514.6 576.3 513.2 575.9 511.9 576.1 510.8 575.2 509.6 573.7 509.5L563.8 510 572.1 501C572.9 500.2 572.9 498.7 572 497.5 571.5 497.2 570.4 497 569.5 497.3 569.5 497.3 569 497.4 568.6 497.5L560.2 506.6 559.8 496.7C560 495.6 558.6 494.5 557.6 494.3 557.1 494.5 557.1 494.5 557.1 494.5 555.7 494.9 555.1 496.1 555.4 497L555.7 511.4 544.4 523.9 543.3 490.1C542.8 488.7 542.1 488 540.6 487.9 540.6 487.9 540.1 488.1 540.1 488.1 539.2 488.3 538.4 489.1 538.4 490.6L539.4 528.9 530.3 538.6 529.9 525.7C529.5 524.4 528.6 523.1 527.3 523.5 527.1 523.1 526.7 523.2 526.7 523.2 525.7 523.5 525.1 524.7 524.9 525.7L525.8 543.5 516.2 553.4 512.3 540.6 520.7 525C521.3 523.8 520.8 522 519.6 521.3 518.5 521.2 517.1 521.6 516.4 522.3L510.4 534.1 506.4 520.8 524.4 487.3C525 486.1 524.6 484.7 523.4 484.1 522.2 483.4 520.8 483.9 520.2 485.1L504.4 514.4 499.6 498.3 506.3 485.7C507 484.5 506.6 483.1 505.4 482.5S502.8 482.3 502.1 483.5L497.7 491.9 494.2 480.4C493.8 479 492.6 478.3 491.2 478.8 489.8 479.2 489.2 480.4 489.6 481.7L493.1 493.2 484.2 488.9C483.6 488.6 483 488.2 482.6 488.4 482.1 488.5 481.3 489.3 481 489.9 480.4 491.1 480.8 492.4 482 493.1L495 499.7 499.8 515.8 470.1 500.2C469.5 499.9 468.9 499.5 468.4 499.7 468 499.8 467.2 500.5 466.9 501.1 466.2 502.3 466.6 503.7 467.8 504.4L501.8 522.2 505.8 535.5 494.3 529C493.7 528.6 492.8 528.9 492.3 529.1 491.9 529.2 491.4 529.3 491.1 529.9 490.4 531.1 491 533 492.1 533.1L507.8 541.9 511.6 554.8 498.2 551.8 489.1 536.6C488.3 535.8 487.1 535.1 486.2 535.4 485.8 535.5 485.8 535.5 485.9 536 484.5 536.4 484 538.1 484.9 539.3L491.7 550.3 478.3 547.3 458.3 514.3C457.5 513.5 456.5 513.3 455.6 513.6 455.1 513.7 455.1 513.7 455.1 513.7 453.9 514.6 453.2 515.8 454.1 517L471.8 545.8 455.5 541.7 447.8 529.4C447 528.2 445.9 528 445 528.3 445 528.3 444.5 528.4 444.5 528.4 443.3 529.3 443.2 530.8 443.5 531.8L449 540.1 437.1 537.2C436.7 537.3 436.2 537.5 435.7 537.6 435.3 537.7 434.5 538.5 434.2 539.1 434.1 540.6 434.6 542 436.1 542L448 544.9 439.5 550C438.3 550.9 438.2 552.4 438.5 553.3 439.4 554.6 440.9 554.6 442.3 554.2L454.5 546.5 470.6 550.1 442.3 567.7C441.1 568.6 440.6 570.2 441.3 571 442.2 572.3 443.4 572.9 444.6 572Z" fill="rgba(162, 163, 165, 0.58)"></path><path d="M1001.7 340.5L971.1 331.5 965.7 321.2 976 324.3C977 324.9 978 324.1 978.6 323 978.7 322.2 978.1 320.8 977.2 320.8L963.1 316.3 957.5 306.3 968.9 306.8 979.1 317.7C979.1 317.7 979.4 317.9 979.4 317.9 980.1 318.3 981.2 318.1 982 317.6 982.6 316.6 982.7 315.7 981.9 314.7L974.5 306.9 985.9 307.3 1008 330.3C1008 330.3 1008.1 330.8 1008.1 330.8 1008.8 331.3 1009.9 331 1010.7 330.5 1011.6 329.7 1011.6 328.3 1010.6 327.6L991.5 307.5 1005.5 307.6 1014 316.6C1014 316.6 1014 316.6 1014.4 316.8 1015.1 317.3 1015.9 317.3 1016.7 316.9 1017.3 315.8 1017.6 314.6 1016.8 313.6L1011 307.7 1021.3 307.9C1022.5 308.2 1023.1 307.2 1023.2 306.3 1023.5 305.1 1022.7 304.1 1021.2 304.2L1011.2 303.6 1017.2 298.4C1017.9 297.4 1018.2 296.2 1017.1 295.5 1016.3 294.6 1015.4 294.5 1014.5 295.3L1005.5 303.8 991.7 303.4 1012 284C1012.8 283.5 1012.8 282 1011.9 281.1 1011.3 280.7 1010 280.4 1009.1 281.2L986.1 303.2 974.7 302.8 982.5 295.4C983.5 294.6 983.2 293.5 982.4 292.5 981.9 291.7 980.5 291.8 979.7 292.3L969.1 302.6 957.4 302.5 963.5 292.6 977.8 289.2C978.9 289 979.6 287.9 979.3 286.8 979.4 285.9 978 285.1 976.9 285.4L966.5 287.9 972.5 278 1003.7 270.8C1004.8 270.6 1005.4 269.5 1005.1 268.4 1004.9 267.3 1003.9 266.7 1002.8 267L975.5 273.2 982.6 261.6 994.7 258.7C995.8 258.5 996.4 257.4 996.2 256.3 995.9 255.2 994.9 254.6 993.8 254.9L985.7 256.5 991 248C991.6 247 991.3 245.9 990.3 245.2 989.3 244.6 988.2 244.9 987.5 245.9L982.3 254.4 980.5 246.7C980.2 245.6 979.2 245 978.1 245.2S976.4 246.5 976.6 247.6L979.4 259.2 972.1 271.1 965.6 244.2C965.4 243.1 964.3 242.4 963.2 242.7 962.1 243 961.5 244 961.8 245.1L969.1 275.9 963 285.8 960.6 275.3C960.3 274.2 959.3 273.6 958.2 273.8 957.1 274.1 956.4 275.1 956.7 276.2L960.1 290.5 954.3 300.1 949 290.3 953.1 275.9C953.2 275 952.6 273.7 951.7 273.6 950.5 273.4 949.7 273.8 949.1 274.9L946 285.2 940.8 275.4 949.8 244.7C950 243.5 949.6 242.7 948.6 242.1 947.3 241.8 946.4 242.6 945.9 243.3L937.8 270.3 931.4 257.9 934.7 246.3C935.3 245.3 934.5 244.3 933.5 243.7 932.6 243.6 931.3 244.2 931 245.4L928.7 253 923.8 244.3C923.5 243.2 922.3 242.9 921 243.5 920.2 243.9 919.9 245.2 920.4 245.9L925.2 255 917.3 252.5C916.1 252.2 915.1 253 915 253.9 914.4 254.9 914.9 255.7 915.5 256.1 915.9 256.3 915.9 256.3 916.2 256.5L927.8 259.9 934.2 272.3 907.6 264.4C906.6 263.8 905.6 264.6 905 265.6 904.9 266.5 905.4 267.3 906.1 267.7 906.4 267.9 906.4 267.9 906.4 267.9L937.2 277.4 942.5 287.2 932.1 284.1C930.9 283.9 930.1 284.3 929.5 285.3 929.4 286.2 929.7 287.3 930.4 287.8 930.7 288 930.7 288 931.1 288.2L945.4 292.3 950.7 302.1 939.6 301.8 929.2 291.2C928.4 290.3 926.9 290.3 926.2 290.8 925.5 291.8 925.2 293.1 926.3 293.7L933.7 301.5 922.3 301.6 900.1 278.1C899.7 277.3 898.2 277.4 897.5 277.9 896.8 278.9 896.6 280.1 897.4 281.1L916.4 301.3 902.7 300.8 894.4 292C893.6 291 892.2 291.1 891.6 292.1 890.8 292.6 890.5 293.8 891.3 294.8L897.1 300.6 886.9 300.5C886 300.4 885 301.2 884.7 302.4 884.9 303 885.3 303.7 886 304.2 886 304.2 886.4 304.4 886.7 304.6L896.9 304.8 891 310.5C890.3 311 890.3 312.4 890.8 313.2 891.1 313.4 891.1 313.4 891.1 313.4 892.2 314 893.3 313.8 893.7 313.1L902.5 304.9 916.5 305 896.1 324.4C895.5 325.5 895.4 326.4 896.2 327.3 896.2 327.3 896.5 327.5 896.5 327.5 897.2 327.9 898.1 328 899.1 327.2L922.4 305.4 933.5 305.6 925.6 313C925 314 924.7 315.3 925.8 315.9 925.5 316.2 925.9 316.5 925.9 316.5 926.6 316.9 927.7 316.6 928.4 316.1L939 305.8 950.5 306.2 944.6 315.8 930.3 319.2C929.2 319.4 928.4 320.8 928.6 321.9 929.1 322.7 930.1 323.3 931 323.4L941.7 320.5 935.6 330.4 904.8 337.8C903.7 338 903.1 339.1 903.3 340.2 903.6 341.3 904.6 341.9 905.7 341.6L932.7 335.2 925.4 347.1 913.8 349.9C912.7 350.1 912.1 351.2 912.3 352.3S913.6 354 914.7 353.7L922.4 351.9 917.2 360.4C916.6 361.4 916.8 362.5 917.8 363.2 918.9 363.8 920 363.5 920.6 362.5L925.8 354 928 361.9C928.1 362.4 928.3 363 928.6 363.2 929 363.4 929.8 363.5 930.4 363.4 931.5 363.1 932.1 362.1 931.9 361L928.8 349.2 936.1 337.3 942.9 364.4C943 365 943.1 365.5 943.5 365.8 943.8 366 944.7 366 945.3 365.9 946.4 365.7 947 364.6 946.7 363.5L939 332.5 945.1 322.6 947.4 333.4C947.5 334 948.2 334.4 948.5 334.6 948.9 334.8 949.2 335 949.8 334.9 950.9 334.6 951.7 333.3 951.2 332.5L948 317.9 953.9 308.3 959.5 318.3 955 332.5C954.9 333.4 955.2 334.5 955.9 334.9 956.2 335.1 956.2 335.1 956.4 334.8 957.4 335.4 958.8 334.8 959 333.5L962.1 323.2 967.7 333.2 958.2 364C958.1 364.9 958.6 365.6 959.2 366.1 959.6 366.3 959.6 366.3 959.6 366.3 960.8 366.6 961.9 366.3 962.2 365.1L970.3 338.1 976.8 350.5 973.4 362.1C973.1 363.3 973.6 364.1 974.3 364.5 974.3 364.5 974.6 364.7 974.6 364.7 975.9 365 976.8 364.2 977.2 363.5L979.4 355.4 984.2 364.5C984.5 364.7 984.8 364.9 985.2 365.1 985.5 365.3 986.4 365.4 987 365.3 987.9 364.4 988.6 363.4 987.8 362.5L983 353.4 990.8 355.9C992.1 356.2 993 355.4 993.5 354.7 993.8 353.5 992.9 352.5 991.9 351.9L980.4 348.5 973.7 336.4 1000.3 344.3C1001.5 344.6 1002.8 344 1002.9 343.1 1003.2 341.9 1002.9 340.8 1001.7 340.5Z" fill="rgba(162, 163, 165, 0.58)"></path><path d="M610.1 257.5L660.3 274.2 667.2 287.1 649.3 314.4 634.4 313.9 599.2 274.1C598.7 273.7 598.7 273.7 598.2 273.4 597.1 272.7 595.7 272.5 594.1 273.8 593 275.4 592.9 276.8 594.1 278.4L625 313.1 602.1 311.9 588.3 296.7C588.3 296.7 587.7 296.4 587.7 296.4 586.7 295.7 585.2 295.5 583.7 296.8 582.4 297.5 582.4 299.8 583.7 301.4L592.3 311.6 575.4 310.5C574 310.4 572.4 311.6 571.9 313.6S573.6 316.9 575.5 317.5L591.9 318.2 582.2 327.1C580.6 328.4 580.6 330.7 581.9 332.3 582.9 333 584.9 333.5 586.5 332.3L601.6 318.4 625.1 320 590.4 350.9C588.8 352.1 588.8 354.4 589.6 355.7 591.2 356.7 593.1 357.2 594.7 356L633.9 320.4 649.4 321.3 663.7 349.8 655.3 362.6 603.6 374C601.8 374.4 600.8 376 601.1 377.7S603.1 380.6 604.9 380.2L650.4 370.2 637.5 390 618 394.1C616.2 394.4 615.2 396.1 615.2 398.4S617.2 401.2 618.9 400.8L632.6 397.5 623.1 412C622.1 413.6 623 415.7 624.6 416.7 626.2 417.8 628 417.4 629 415.8L638.5 401.3 641.3 414.6C641.3 416.9 642.9 418 645 417.1 646.8 416.7 647.8 415.1 647.5 413.3L643.4 393.8 656.3 374 665.4 419.7C665.8 421.5 668 422.9 669.7 422.5S672.6 420.5 672.2 418.8L661.2 366.5 669.6 353.6 701.9 355.6 708.4 369.1 691.7 419.3C691.2 421.2 692.5 422.8 694.1 423.9 696 424.4 697.6 423.1 698.7 421.5L713 377.3 723.3 397.8 716.7 417.3C716.2 419.2 717.5 420.8 719.1 421.8 720.5 422 722.6 421.1 723.1 419.1L727.4 406.7 735.2 421.7C735.9 422.9 737.9 423.4 739.7 423.1 741.3 421.8 741.8 419.8 741.1 418.6L733.3 403.6 746.6 407.7C748.1 407.9 750.2 407 750.3 405.6 751.4 404 750.7 402.7 749.1 401.7 749.1 401.7 748.5 401.3 748.5 401.3L729.1 394.8 718.8 374.3 763 388.6C764.9 389.1 766.7 388.7 767.2 386.8 767.7 384.8 767 383.6 765.9 382.9 765.4 382.5 765.4 382.5 765.4 382.5L714.3 366 707.7 352.5 725.6 325.2 740.2 326.3 776.2 365.9C776.9 367.1 779.2 367.1 780.5 366.4 782.1 365.1 782 362.8 780.8 361.2L749.9 326.6 772.8 327.8 786.6 342.9C787.9 344.5 789.9 345 790.9 343.4 792.5 342.1 792.5 339.8 791.8 338.6L782.2 328.6 799.1 329.6C800.9 329.3 802.5 328 803 326.1 802.8 325.2 802.1 323.9 801 323.2 800.5 322.9 800.5 322.9 799.6 323.1L782.7 322 792.7 312.5C794.3 311.2 794 309.5 793.2 308.2 792.7 307.9 792.7 307.9 792.2 307.5 791.1 306.8 789.7 306.7 788.4 307.4L773.3 321.2 750.4 320 785.1 289.1C786.1 287.5 786.6 285.6 785 284.5 784.8 283.6 784.8 283.6 784.3 283.3 783.2 282.6 781.4 283 780.2 283.7L740.6 319.7 726.1 318.6 711.2 289.9 719.3 277.5 771.5 266.5C773.3 266.2 774.7 264 774.3 262.3S771.8 259.1 770 259.5L724.5 269.5 737.1 250.2 756.9 245.6C758.7 245.2 759.8 243.6 759.4 241.8 759 240 757.4 239 755.6 239.4L742.3 242.2 751.8 227.7C752.5 226.6 752.5 224.3 750.9 223.3 749.3 222.2 746.6 222.8 745.9 223.8L736.5 238.3 733.7 225C733.5 224.1 733.3 223.2 732.8 222.9 731.7 222.2 730.8 222.4 729.9 222.6 728.1 222.9 727.1 224.6 727.5 226.3L731.2 246.3 718.6 265.6 709.5 219.9C709.3 219 708.7 218.7 707.7 218 707.1 217.6 706.6 217.3 705.7 217.5 703.9 217.9 702.5 220 702.9 221.8L713.4 273.7 705.3 286 673.5 284.4 666.1 271.1 683.2 220.4C683.4 218.9 683 217.2 681.9 216.5 681.4 216.1 681.4 216.1 681 216.7 679.4 215.6 677.3 216.5 676.8 218.5L662.5 262.6 651.6 241.8 658.2 222.4C658.4 221 657.6 219.7 656.6 219 656.6 219 656 218.7 656 218.7 654.4 217.6 652.3 218.5 651.8 220.5L647.7 233.8 639.9 218.8C639.7 217.9 639.2 217.6 638.6 217.2 637.5 216.5 636.1 216.4 635.8 216.9 633.7 217.8 633.1 219.8 633.5 221.6L641.3 236.6 628.8 232.3C626.9 231.7 624.7 232.7 624.2 234.6 624.1 236 625 238.2 626.4 238.3L645.8 244.9 656.1 265.4 612 251.1C610 250.5 608.4 251.8 607.4 253.4 607.2 254.8 608.1 257 610.1 257.5ZM657.3 315.1L671 294.2 673.1 290.9 676.8 291.1 701.1 292.4 705.4 292.9 707 296.3 718.1 318 719.7 321.4 717.6 324.6 704 345.5 701.9 348.7 698.1 348.6 673.8 347.2 670.1 347.1 667.9 343.4 656.9 321.6 655.2 318.3 657.3 315.1Z" fill="rgba(162, 163, 165, 0.58)"></path><path d="M1231.8 119.6L1233 137.1 1222.2 132.3C1221.1 131.7 1219.4 132.2 1218.4 133.6 1218.1 135.2 1218.6 136.9 1219.7 137.5L1233.8 144.1 1234.8 160.4 1206.3 146.7C1204.4 146 1202.7 146.5 1202.4 148 1201.4 149.4 1201.9 151.1 1203.7 151.9L1235.2 166.9 1236.5 181.7 1208.4 201.1 1196.5 195.6 1194.1 158.6C1193.7 158.1 1193.4 157.6 1193.1 157.2 1192.8 156.7 1191.7 156.1 1190.9 156 1188.9 156 1187.8 157.4 1188.3 159.1L1190.6 192.9 1176.2 185.9 1174.5 168.6C1175 168.3 1174.6 167.9 1174.3 167.4 1173.7 166.5 1172.6 165.9 1171.3 166.1 1170.1 166.2 1169 167.6 1168.8 169.2L1170.2 183.2 1152.1 174.6C1151 174 1149.3 174.5 1148.2 175.9 1147.9 177.5 1148.4 179.2 1149.5 179.8L1166.6 187.7 1156.9 194.4C1155.5 195.4 1155.5 197.4 1156.2 198.3 1157.1 199.7 1159 200.4 1160.4 199.5L1172.8 190.9 1187.2 198 1161.4 215.8C1160 216.7 1159.7 218.3 1160.7 219.7 1161.6 221 1163.2 221.3 1164.6 220.4L1193.2 200.7 1205.8 206.2 1208.4 240.5 1197.8 247.8 1165.5 232.6C1164.1 231.6 1162 232.4 1161.7 233.9 1160.6 235.3 1161.6 236.7 1163 237.8L1192.2 251.6 1178.9 260.9 1164.5 253.8C1163.4 253.2 1161.2 254 1160.6 255.1S1160.8 258.3 1162.2 259.4L1173.3 264.7 1157.2 275.8C1155.8 276.7 1155.9 278.8 1156.8 280.1 1157.4 281.1 1159.3 281.8 1160.7 280.9L1176.8 269.7 1178.1 282.5C1178.3 283.7 1179.3 285.1 1181.3 285 1182.5 284.9 1184 283.1 1183.9 281.9L1182.4 265.9 1195.7 256.7 1198.3 289C1198.8 290.7 1199.7 292.1 1201.7 292 1203 291.9 1204.5 290.1 1204.3 288.9L1201.3 252.9 1211.9 245.6 1243 260.2 1243.7 274 1215.1 293.7C1213.7 294.6 1213.4 296.2 1214.4 297.6 1215.3 299 1217.2 299.7 1218.6 298.8L1244.4 281 1245.9 296.9 1233.5 305.5C1232.1 306.5 1231.8 308 1232.8 309.4 1233.7 310.8 1235.3 311.1 1236.6 310.1L1246.3 303.5 1247.7 322.2C1247.9 323.5 1249.6 325 1250.9 324.8 1252.6 324.3 1253.9 323.4 1253.4 321.7L1252.2 302.1 1264.4 308C1266 308.3 1267.7 307.8 1268.3 306.7 1268.9 305.6 1268.7 304.3 1268.1 303.4 1268.1 303.4 1267.8 303 1267 302.8L1251.5 295.1 1250 279.2 1280.8 293.3C1282.2 294.4 1283.9 293.9 1284.7 292 1284.8 291.2 1285 290.4 1284.3 289.5 1284 289 1283.7 288.6 1283.4 288.1L1249.6 272.6 1248.8 259.6 1276.9 240.2 1290.2 246.7 1293.1 281.4C1293.1 283.5 1294.5 284.5 1296.2 284 1297.8 284.3 1298.8 282.9 1298.8 280.9L1296.1 249.4 1311 256.2 1312.2 271.7C1312.3 272.9 1313.8 274 1315.3 274.3 1317 273.8 1318.4 272.8 1317.9 271.1L1317.3 259.3 1333.2 266.7C1334.6 267.8 1336 266.8 1337.1 265.4 1337.2 264.6 1337 263.4 1336.4 262.4 1336.4 262.4 1336.1 262 1335.8 261.5L1318.7 253.6 1330.2 245.6C1331.2 245 1331.9 243.1 1331 241.7 1330 240.3 1328 240.4 1327.1 241L1312.8 250.8 1297.9 244.1 1326 224.7C1327.4 223.7 1327.4 221.7 1326.4 220.3S1323.9 218.7 1322.5 219.6L1291.6 240.9 1279.4 235.1 1276.9 200.8 1288.9 192.5 1321.4 208.2C1323 208.4 1324.7 207.9 1325.8 206.5 1325.9 205.8 1325.7 204.5 1325.1 203.6 1324.8 203.1 1324.5 202.7 1323.7 202.5L1294.4 188.7 1307.8 179.5 1322.6 186.2C1323.7 186.8 1325.4 186.3 1326.5 184.9 1326.8 183.4 1326.3 181.7 1325.2 181.1L1313.3 175.7 1328.1 165.5C1329 164.9 1329.4 162.5 1328.8 161.6 1327.8 160.2 1325.5 159.8 1324.6 160.4L1309.8 170.6 1309.3 158C1309 157.6 1308.7 157.1 1308.4 156.6 1307.7 155.7 1306.6 155.1 1305.8 155 1304.1 155.5 1303.1 156.9 1302.8 158.4L1304.3 174.4 1290.9 183.6 1288.4 151.3C1288.4 149.3 1286.9 148.3 1285.7 148.4 1283.7 148.5 1282.6 149.9 1282.3 151.4L1285.4 187.4 1273.4 195.7 1242.3 181.1 1241.1 167.6 1272 146.3C1273.4 145.4 1273.7 143.8 1272.7 142.4 1271.8 141 1270.2 140.8 1268.8 141.7L1240.7 161.1 1239.7 144.8 1254 135C1254.9 134.3 1255.3 132 1254.4 130.6 1253.4 129.2 1251.4 129.2 1250.5 129.9L1238.9 137.8 1237.6 119.1C1237.2 118.6 1237.2 118.6 1236.9 118.1 1236.3 117.2 1235.2 116.6 1234.4 116.5 1232.7 117 1231.6 118.4 1231.8 119.6ZM1267.9 199.5L1271.2 201.3 1271.4 204.6 1273.5 232.4 1273.7 235.6 1270.9 237.5 1248.3 253.1 1245.6 255 1242.6 253.6 1217.4 241.8 1214.4 240.4 1213.9 236.7 1212.1 209.4 1211.6 205.7 1214.3 203.8 1236.9 188.2 1239.7 186.3 1243 188.1 1267.9 199.5Z" fill="rgba(162, 163, 165, 0.58)"></path><path d="M979.8 539.4L954.7 559.2 943.2 557.5 951.6 550.9C952.7 550.4 952.7 549.2 952.2 548.1 951.5 547.5 950.1 547.2 949.5 547.9L937.6 556.8 926.3 555.5 933.3 546.5 948.1 544.6C948.1 544.6 948.5 544.4 948.5 544.4 949.2 544.1 949.6 543.1 949.7 542.2 949.2 541.1 948.5 540.5 947.3 540.6L936.6 542 943.7 533 975.1 528.4C975.1 528.4 975.7 528.6 975.7 528.6 976.4 528.3 976.8 527.2 976.9 526.3 976.8 525.1 975.6 524.3 974.5 524.7L947 528.5 955.2 517.2 967.5 515.5C967.5 515.5 967.5 515.5 967.9 515.4 968.6 515.1 969.2 514.4 969.3 513.5 968.8 512.4 968 511.4 966.7 511.5L958.6 512.8 964.7 504.6C965.6 503.7 965.1 502.6 964.5 502.1 963.6 501.1 962.4 501.2 961.6 502.4L955.3 510.3 954.6 502.3C954.1 501.2 953.3 500.3 952.2 500.7 950.9 500.8 950.3 501.5 950.4 502.8L952.2 515.1 943.7 526 939.8 498.1C939.9 497.3 938.6 496.5 937.4 496.6 936.7 496.9 935.7 497.7 935.8 499L940.4 530.4 933.4 539.5 931.9 528.8C931.8 527.6 930.8 527.1 929.5 527.2 928.6 527.2 927.8 528.4 927.8 529.3L930 543.9 923.2 553.4 918.7 542.7 924.2 529C924.6 528 924.1 526.9 923.1 526.5 922.4 525.9 920.9 526.5 920.5 527.6L916.5 537.5 912 526.8 924.3 497.3C924.7 496.3 924.2 495.2 923.2 494.7 922.1 494.3 921 494.8 920.6 495.8L909.8 521.7 904.5 509.1 909.2 497.6C909.6 496.6 909.1 495.5 908.1 495 907 494.6 905.9 495.1 905.5 496.1L902.2 503.6 898.3 494.4C897.8 493.3 896.8 492.9 895.6 493.3 894.5 493.8 894.1 494.9 894.6 496L898.5 505.2 891.1 502.2C890.1 501.8 889 502.2 888.6 503.3S888.6 505.4 889.6 505.9L900.7 510.3 906.1 523.2 880.4 512.8C879.4 512.4 878.3 512.8 877.8 513.9 877.4 514.9 877.9 516 878.9 516.5L908.3 528.4 912.8 539.1 902.8 535C901.8 534.6 900.7 535.1 900.3 536.1 899.8 537.2 900.3 538.3 901.3 538.7L915 544.2 919.3 554.5 908.3 553.1 899 541.4C898.3 540.8 896.9 540.6 896.3 541.2 895.4 542.1 895.3 543 895.8 544.1L902.4 552.6 891.4 551.1 871.7 526C870.8 525.1 870 525 868.8 525.5 867.9 526.3 868 527.6 868.3 528.3L885.5 550.6 871.7 548.6 864.2 539.2C863.7 538.1 862.5 538.2 861.4 538.6 860.8 539.3 860.5 540.7 861.4 541.7L866.2 547.9 856.2 546.9C855.1 546.5 854.2 547.3 853.9 548.7 853.9 549.6 854.7 550.6 855.6 550.6L865.7 552 859.1 557C858.2 557.8 858.3 559.1 858.9 559.6 859.4 560.7 860.3 560.8 861 560.5 861.4 560.3 861.4 560.3 861.8 560.2L871.2 552.7 885.1 554.7 863.2 571.7C862.1 572.2 862.2 573.5 862.6 574.6 863.3 575.2 864.2 575.2 865 574.9 865.3 574.7 865.3 574.7 865.3 574.7L891 555.2 902 556.7 893.5 563.3C892.5 564.1 892.5 565 892.9 566.1 893.6 566.7 894.7 567.1 895.4 566.8 895.8 566.7 895.8 566.7 896.1 566.5L907.9 557.2 918.9 558.6 912.2 567.5 897.5 569.8C896.3 569.9 895.5 571.1 895.4 572 895.9 573.1 896.7 574.1 897.8 573.6L908.5 572.1 902 581.4 870 585.8C869.1 585.7 868.3 586.9 868.2 587.8 868.7 588.9 869.5 589.9 870.8 589.8L898.3 586 889.9 596.9 878 598.5C876.7 598.6 875.9 599.8 876.4 600.9 876.3 601.8 877.1 602.7 878.4 602.6L886.6 601.4 880.5 609.6C879.9 610.3 880 611.5 880.8 612.5 881.3 612.7 882.2 612.8 883 612.4 883 612.4 883.3 612.3 883.7 612.1L889.8 603.9 891.1 612.1C891 613 892.2 613.8 893.1 613.8 893.5 613.7 893.5 613.7 893.5 613.7 894.6 613.2 895 612.1 894.7 611.4L893.1 599.5 901.4 588.2 905.3 616C905.8 617.1 906.5 617.7 907.7 617.6 907.7 617.6 908.1 617.5 908.1 617.5 908.8 617.2 909.4 616.5 909.3 615.2L905.1 583.6 911.8 574.7 913.2 585.3C913.7 586.5 914.5 587.4 915.6 586.9 915.8 587.3 916.2 587.1 916.2 587.1 916.9 586.8 917.3 585.8 917.4 584.9L915.1 570.2 922.1 561.2 926.5 571.5 920.9 585.1C920.5 586.2 921.1 587.6 922.2 588.1 923.1 588.1 924.2 587.7 924.8 587L928.7 576.7 933.2 587.3 921.2 616.7C920.8 617.7 921.3 618.8 922.3 619.3 923.4 619.7 924.5 619.2 924.9 618.2L935.3 592.5 940.8 605.4 936.3 616.4C935.9 617.5 936.4 618.6 937.4 619S939.6 618.9 940 617.9L943 610.6 946.9 619.8C947.3 620.9 948.4 621.3 949.5 620.8 950.6 620.4 951 619.3 950.5 618.2L946.7 609 954.4 611.8C954.9 612 955.4 612.3 955.8 612.1 956.1 611.9 956.7 611.3 956.9 610.7 957.4 609.7 956.9 608.6 955.9 608.2L944.5 603.8 939 590.9 965.1 601.2C965.6 601.4 966.1 601.7 966.5 601.5 966.9 601.3 967.4 600.7 967.7 600.1 968.1 599.1 967.6 598 966.6 597.6L936.9 585.8 932.3 575.1 942.5 579.5C943 579.7 943.7 579.4 944.1 579.3 944.5 579.1 944.8 579 945 578.4 945.5 577.4 944.8 575.9 943.9 575.8L930.2 569.9 925.8 559.6 937.2 560.9 946.1 572.8C946.8 573.3 947.8 573.8 948.6 573.5 948.9 573.3 948.9 573.3 948.8 572.9 949.9 572.5 950.2 571 949.3 570.1L942.7 561.6 954.1 562.9 973.6 588.5C974.3 589.1 975.2 589.1 975.9 588.8 976.3 588.7 976.3 588.7 976.3 588.7 977.2 587.8 977.7 586.8 976.8 585.8L959.6 563.6 973.5 565.6 980.9 575C981.8 575.9 982.7 576 983.4 575.7 983.4 575.7 983.8 575.5 983.8 575.5 984.7 574.7 984.6 573.4 984.3 572.7L979 566.3 989.1 567.6C989.5 567.5 989.8 567.3 990.2 567.2 990.6 567 991.2 566.3 991.4 565.8 991.3 564.5 990.8 563.4 989.6 563.5L979.4 562.2 986 557.2C987 556.4 986.9 555.1 986.6 554.4 985.7 553.4 984.5 553.5 983.4 554L973.9 561.5 960.2 559.9 982.1 542.8C983 542 983.3 540.6 982.6 540 981.8 539 980.8 538.6 979.8 539.4Z" fill="rgba(162, 163, 165, 0.58)"></path><path d="M163.6 421.9L140.5 409.1 138.3 402.2 149.5 390.3 156.8 392 170.5 414.7C170.7 415 170.7 415 170.9 415.2 171.4 415.6 172.1 415.8 173 415.4 173.6 414.7 173.8 414 173.4 413.1L161.3 393.2 172.5 395.9 177.9 404.6C177.9 404.6 178.2 404.8 178.2 404.8 178.6 405.3 179.3 405.5 180.2 405 180.9 404.8 181.1 403.6 180.6 402.7L177.3 396.9 185.5 399C186.2 399.2 187.1 398.7 187.5 397.8S187 396 186.1 395.6L178.1 393.7 183.7 390.2C184.6 389.7 184.8 388.6 184.3 387.7 183.8 387.3 182.9 386.8 182 387.3L173.3 392.7 161.9 389.8 181.8 377.8C182.7 377.3 182.9 376.2 182.6 375.5 182 374.8 181 374.4 180.1 374.9L157.6 388.8 150.1 386.9 145.7 371.7 151 366.1 177.4 365.2C178.3 365.2 179 364.5 179 363.6S178.2 362 177.3 362.1L154 362.8 162.2 354.3 172.2 354C173.1 354 173.7 353.3 173.9 352.2S173.2 350.6 172.3 350.6L165.3 351 171.3 344.8C171.9 344.1 171.7 343 171 342.3 170.3 341.6 169.4 341.7 168.7 342.3L162.8 348.6 162.6 341.8C162.8 340.7 162.1 340 161 340.3 160.1 340.3 159.4 341 159.4 341.9L159.7 351.8 151.5 360.4 151.2 337.1C151.1 336.2 150.2 335.3 149.3 335.4S147.7 336.1 147.8 337L148.4 363.7 143.1 369.2 127.4 365.3 125.4 358.1 138.2 334.9C138.6 334 138.2 333.1 137.5 332.5 136.6 332 135.7 332.5 135 333.2L123.9 353.6 120.7 342.6 125.7 333.7C126.2 332.7 125.7 331.9 125 331.2 124.3 331 123.2 331.2 122.7 332.1L119.5 337.9 117 329.8C116.8 329.1 115.9 328.7 115 328.7 114.1 329.2 113.6 330.1 113.9 330.8L116.3 338.9 110.2 335.6C109.5 335.4 108.3 335.7 108.1 336.4 107.5 337 107.7 337.7 108.4 338.4 108.4 338.4 108.6 338.6 108.6 338.6L117.6 343.6 120.8 354.6 100.4 343.6C99.5 343.1 98.6 343.1 98.1 344.1 97.7 345 98 345.7 98.4 346.1 98.6 346.3 98.6 346.3 98.6 346.3L122.3 359.1 124.3 366.3 113 378.1 105.9 376.2 91.8 353.5C91.6 352.8 90.4 352.6 89.8 352.9 88.9 353.3 88.7 354.5 89.1 355.4L101.2 375.2 90 372.6 84.6 363.9C84.1 363 83.2 362.5 82.5 363.2 81.6 363.7 81.4 364.8 81.7 365.5L85.4 371.3 77.2 369.2C76.3 369.3 75.4 369.7 75 370.7 75 371.1 75.3 371.8 75.7 372.2 76 372.4 76 372.4 76.4 372.4L84.6 374.5 78.8 378.3C77.9 378.7 78 379.6 78.2 380.3 78.4 380.5 78.4 380.5 78.7 380.7 79.1 381.2 79.8 381.4 80.5 381.2L89.2 375.7 100.3 378.4 80.5 390.4C79.8 391.1 79.4 392 80.1 392.7 80.1 393.2 80.1 393.2 80.3 393.4 80.8 393.8 81.7 393.8 82.4 393.6L105.1 379.4 112.2 381.3 116.8 396.8 111.8 402.1 85.1 402.8C84.2 402.8 83.3 403.7 83.3 404.6S84.3 406.4 85.2 406.4L108.5 405.6 100.5 413.9 90.3 414.4C89.4 414.4 88.8 415.1 88.8 416 88.8 416.9 89.5 417.6 90.4 417.6L97.2 417.4 91.2 423.7C90.8 424.1 90.6 425.3 91.3 425.9 92 426.6 93.4 426.6 93.8 426.1L99.8 419.8 99.9 426.6C99.9 427.1 99.9 427.5 100.2 427.8 100.6 428.2 101.1 428.2 101.5 428.2 102.4 428.2 103.1 427.5 103.1 426.6L103.1 416.4 111 408 111.3 431.3C111.4 431.8 111.6 432 112.1 432.5 112.3 432.7 112.5 432.9 113 432.9 113.9 432.9 114.8 431.9 114.7 431L114.3 404.6 119.4 399.2 134.9 402.9 137.3 410.1 124.3 433.5C124.1 434.2 124.1 435.1 124.6 435.5 124.8 435.8 124.8 435.8 125 435.5 125.7 436.2 126.8 435.9 127.3 435L138.3 414.6 141.8 425.8 136.8 434.8C136.6 435.5 136.8 436.1 137.3 436.6 137.3 436.6 137.5 436.8 137.5 436.8 138.2 437.5 139.3 437.2 139.8 436.3L143 430.1 145.5 438.2C145.5 438.7 145.7 438.9 145.9 439.1 146.4 439.5 147.1 439.7 147.3 439.5 148.4 439.3 148.9 438.3 148.8 437.4L146.4 429.4 152.1 432.6C153 433 154.2 432.8 154.6 431.9 154.8 431.2 154.5 430.1 153.9 429.9L144.9 424.9 141.7 413.8 162.1 424.9C163 425.3 163.9 424.9 164.6 424.2 164.8 423.5 164.5 422.3 163.6 421.9ZM145.6 389.3L137 398.3 135.7 399.7 133.9 399.3 122 396.4 120 395.8 119.5 394 116 382.3 115.5 380.5 116.9 379.1 125.5 370.1 126.8 368.7 128.6 369.1 140.5 372 142.3 372.4 143 374.4 146.5 386.1 147 387.9 145.6 389.3Z" fill="rgba(162, 163, 165, 0.58)"></path><path d="M308.4 334.9L324.2 355 322.8 364.2 317.5 357.4C317.2 356.5 316.2 356.6 315.3 357 314.8 357.5 314.6 358.7 315.1 359.1L322.3 368.6 321.2 377.7 314 372.1 312.5 360.2C312.5 360.2 312.4 360 312.4 360 312.1 359.4 311.3 359 310.6 359 309.7 359.3 309.2 359.9 309.3 360.9L310.5 369.4 303.2 363.8 299.5 338.6C299.5 338.6 299.7 338.2 299.7 338.2 299.5 337.6 298.6 337.3 297.9 337.2 296.9 337.3 296.3 338.3 296.6 339.1L299.7 361.1 290.6 354.5 289.3 344.7C289.3 344.7 289.3 344.7 289.1 344.4 288.9 343.8 288.3 343.3 287.6 343.3 286.7 343.7 286 344.3 286.1 345.3L287.1 351.9 280.5 347C279.8 346.2 278.9 346.6 278.5 347.1 277.7 347.8 277.8 348.8 278.8 349.5L285 354.5 278.7 355C277.8 355.4 277 356.1 277.4 357 277.5 358 278 358.4 279 358.4L288.9 357 297.6 363.7 275.3 366.9C274.6 366.8 274 367.8 274.1 368.8 274.3 369.4 275 370.2 276 370.1L301.2 366.4 308.4 372 299.9 373.2C298.9 373.3 298.5 374.1 298.6 375.1 298.6 375.8 299.5 376.5 300.2 376.5L312 374.7 319.5 380.2 311 383.8 300.1 379.4C299.2 379 298.3 379.4 298 380.2 297.5 380.8 298 382 298.9 382.3L306.8 385.6 298.3 389.2 274.7 379.3C273.8 379 273 379.3 272.6 380.2 272.3 381 272.6 381.9 273.5 382.2L294.2 390.9 284.1 395.1 274.9 391.4C274.1 391 273.2 391.4 272.8 392.2 272.5 393.1 272.9 394 273.7 394.3L279.7 397 272.3 400.1C271.4 400.5 271.1 401.3 271.5 402.2 271.9 403.1 272.7 403.4 273.6 403L280.9 399.9 278.6 405.8C278.2 406.6 278.6 407.5 279.4 407.9S281.2 407.8 281.5 407L285.1 398.2 295.4 393.8 287 414.4C286.7 415.2 287.1 416.1 287.9 416.4 288.7 416.8 289.6 416.4 290 415.6L299.5 392.1 308.1 388.5 304.8 396.5C304.5 397.3 304.9 398.2 305.7 398.5 306.5 398.9 307.4 398.5 307.8 397.7L312.2 386.8 320.5 383.3 319.3 392.1 309.9 399.5C309.5 400.1 309.3 401.2 309.8 401.7 310.5 402.4 311.2 402.5 312.1 402.1L318.9 396.8 317.7 405.6 297.6 421.4C296.9 422 296.8 422.8 297.2 423.6 297.9 424.4 298.9 424.3 299.5 424.1L317.3 410.3 315.7 421.4 308.1 427.4C307.3 427.7 307.3 428.7 307.7 429.6 308.2 430.1 309.4 430.3 310.1 429.6L315.1 425.8 314.3 433.8C314 434.6 314.6 435.4 315.8 435.6 316.5 435.7 317.3 435 317.3 434.3L318.4 426.2 322.4 431.4C323 432.2 324 432.1 324.5 431.6 325.4 431.2 325.4 430.5 325.2 429.9 325.1 429.6 325.1 429.6 324.9 429.3L319 421.8 320.5 410.7 334.2 428.2C334.6 429.1 335.6 429 336.5 428.6 336.9 428.1 337 427.4 336.7 426.8 336.6 426.5 336.6 426.5 336.6 426.5L321 406 322.1 397.2 327.4 404C328.1 404.7 328.8 404.8 329.7 404.4 330.2 403.8 330.5 403 330.3 402.4 330.1 402.1 330.1 402.1 330 401.8L322.6 392.5 323.7 383.6 330.8 389 332.7 400.7C332.7 401.7 333.7 402.3 334.4 402.4 335.3 402 336.1 401.4 335.7 400.5L334.5 391.9 341.9 397.1 345.4 422.8C345.4 423.5 346.4 424.1 347.1 424.2 348 423.8 348.7 423.1 348.6 422.1L345.6 400.1 354.4 406.8 355.6 416.4C355.7 417.4 356.6 418 357.5 417.7 358.2 417.7 359 417 358.9 416L357.9 409.5 364.5 414.4C365 414.8 366 414.8 366.8 414.1 367 413.7 367 413 366.8 412.4 366.8 412.4 366.6 412.1 366.5 411.8L359.9 406.9 366.5 405.9C367.2 406 367.8 405 367.9 404.3 367.7 404 367.7 404 367.7 404 367.4 403.1 366.5 402.8 365.9 403L356.4 404.2 347.3 397.6 369.6 394.5C370.5 394.1 371 393.6 370.9 392.6 370.9 392.6 370.8 392.3 370.8 392.3 370.5 391.7 370 391.2 369 391.3L343.7 394.7 336.6 389.3 345.1 388.2C346 387.8 346.7 387.1 346.4 386.2 346.7 386.1 346.5 385.8 346.5 385.8 346.3 385.2 345.4 384.9 344.7 384.9L333 386.7 325.8 381 334 377.6 344.9 382C345.8 382.3 346.9 381.8 347.3 381 347.3 380.3 347 379.4 346.4 378.9L338.1 375.8 346.7 372.2 370.2 381.8C371 382.1 371.9 381.7 372.2 380.9 372.6 380.1 372.2 379.2 371.4 378.8L350.8 370.5 361.1 366.1 370 369.7C370.8 370 371.7 369.7 372 368.8S372 367.1 371.1 366.8L365.3 364.4 372.6 361.3C373.5 360.9 373.9 360.1 373.5 359.2 373.1 358.3 372.3 358 371.4 358.3L364 361.4 366.3 355.3C366.5 354.9 366.6 354.4 366.5 354.1 366.4 353.8 365.8 353.4 365.4 353.2 364.6 352.9 363.7 353.2 363.4 354.1L359.9 363.2 349.6 367.5 357.8 346.7C358 346.3 358.2 345.9 358 345.6 357.9 345.3 357.4 344.8 356.9 344.6 356.1 344.3 355.2 344.7 354.9 345.5L345.5 369.3 336.9 372.9 340.4 364.8C340.6 364.4 340.4 363.8 340.2 363.5 340.1 363.2 340 362.9 339.6 362.7 338.7 362.4 337.6 362.9 337.5 363.6L332.8 374.6 324.5 378.1 325.5 369 335 361.9C335.5 361.3 335.8 360.5 335.6 359.9 335.5 359.6 335.5 359.6 335.2 359.7 334.8 358.8 333.7 358.6 332.9 359.3L326.1 364.6 327.1 355.5 347.6 339.9C348.1 339.3 348.2 338.6 347.9 338 347.8 337.7 347.8 337.7 347.8 337.7 347.1 337 346.3 336.6 345.5 337.3L327.7 351.1 329.3 340 336.8 334C337.6 333.3 337.6 332.6 337.4 332 337.4 332 337.3 331.7 337.3 331.7 336.6 331 335.6 331.1 335 331.3L329.9 335.6 331 327.5C330.8 327.2 330.7 326.9 330.6 326.6 330.5 326.3 329.9 325.8 329.5 325.6 328.5 325.7 327.6 326.1 327.7 327.1L326.6 335.2 322.6 329.9C322 329.2 320.9 329.2 320.4 329.5 319.6 330.2 319.7 331.2 320 332.1L326 339.6 324.7 350.6 311.1 333.1C310.4 332.3 309.3 332.1 308.8 332.6 308.1 333.3 307.7 334.1 308.4 334.9Z" fill="rgba(162, 163, 165, 0.58)"></path></g><defs><mask id="SvgjsMask1030"><rect width="1440" height="600" fill="#ffffff"></rect></mask><filter id="SvgjsFilter1031"><feGaussianBlur stdDeviation="1"></feGaussianBlur></filter></defs></svg>